<svg width="500" height="500" viewBox="80 20 160 195" fill="none" xmlns="http://www.w3.org/2000/svg">
  <g>
    <path d="M155.253 175.287C188.584 133.022 199.321 109.298 181.712 66.8582L207.782 51.7241C229.961 100.575 215.759 138.697 155.253 175.287Z" fill="#638DB7"/>
    <path d="M162.451 78.9272C182.101 110.536 184.436 141.379 129.961 177.011C160.354 142.387 155.253 115.709 141.051 92.3371L162.451 78.9272Z" fill="#638DB7"/>
    <path d="M106.615 171.456C144.163 146.552 145.72 123.372 132.296 97.7012L116.926 108.238C127.432 124.713 125.875 144.636 106.615 171.456Z" fill="#638DB7"/>
    <path d="M179.961 51.7242C191.243 51.7242 200.389 43.5761 200.389 33.5249C200.389 23.4738 191.243 15.3257 179.961 15.3257C168.679 15.3257 159.533 23.4738 159.533 33.5249C159.533 43.5761 168.679 51.7242 179.961 51.7242Z" fill="#638DB7"/>
    <path d="M142.607 80.4598C151.74 80.4598 159.144 74.0271 159.144 66.0919C159.144 58.1568 151.74 51.7241 142.607 51.7241C133.474 51.7241 126.07 58.1568 126.07 66.0919C126.07 74.0271 133.474 80.4598 142.607 80.4598Z" fill="#638DB7"/>
    <path d="M113.424 97.7012C120.408 97.7012 126.07 92.9838 126.07 87.1648C126.07 81.3457 120.408 76.6284 113.424 76.6284C106.44 76.6284 100.778 81.3457 100.778 87.1648C100.778 92.9838 106.44 97.7012 113.424 97.7012Z" fill="#638DB7"/>
    <path d="M193.969 145.402C205.447 180.46 146.109 201.916 98.4436 181.992C139.3 226.245 246.304 178.927 201.362 136.782L193.969 145.402Z" fill="#394283"/>
    <path d="M123.693 127.969C70.9844 134.832 56.1479 205.174 136.187 199.265C79.9642 192.784 79.7693 141.313 123.693 127.969Z" fill="#638DB7"/>
    <path d="M174.721 120.69C179.483 121.924 182.062 122.892 186.381 125.463L184.207 130.651C180.511 128.092 178.251 126.973 173.93 125.463L174.721 120.69Z" fill="#394283"/>
  </g>
</svg>
